<svg class="svg-icon" style="width: 1em; height: 1em;vertical-align: middle;fill: currentColor;overflow: hidden;" viewBox="0 0 1024 1024" version="1.1" xmlns="http://www.w3.org/2000/svg"><path d="M864 56H216c-17.6 0-32 14.4-32 32v104h112c17.6 0 32 14.4 32 32v32c0 17.6-14.4 32-32 32H184v88h112c17.6 0 32 14.4 32 32v32c0 17.6-14.4 32-32 32H184v88h112c17.6 0 32 14.4 32 32v32c0 17.6-14.4 32-32 32H184v64.8c2.4-0.8 5.6-0.8 8-0.8h112c17.6 0 32 14.4 32 32v32c0 17.6-14.4 32-32 32H192c-2.4 0-5.6-0.8-8-0.8V928c0 17.6 14.4 32 32 32h648c17.6 0 32-14.4 32-32V88c0-17.6-14.4-32-32-32z m-104 744H528c-17.6 0-32-14.4-32-32s14.4-32 32-32h232c17.6 0 32 14.4 32 32s-14.4 32-32 32z m0-160H528c-17.6 0-32-14.4-32-32s14.4-32 32-32h232c17.6 0 32 14.4 32 32s-14.4 32-32 32z m0-192H528c-17.6 0-32-14.4-32-32s14.4-32 32-32h232c17.6 0 32 14.4 32 32s-14.4 32-32 32z m0-168H528c-17.6 0-32-14.4-32-32s14.4-32 32-32h232c17.6 0 32 14.4 32 32s-14.4 32-32 32z" fill="#3FA7F7" /><path d="M160 280h112c17.6 0 32-14.4 32-32v-16c0-17.6-14.4-32-32-32H160c-17.6 0-32 14.4-32 32v16c0 17.6 14.4 32 32 32zM160 464h112c17.6 0 32-14.4 32-32v-16c0-17.6-14.4-32-32-32H160c-17.6 0-32 14.4-32 32v16c0 17.6 14.4 32 32 32zM160 648h112c17.6 0 32-14.4 32-32v-16c0-17.6-14.4-32-32-32H160c-17.6 0-32 14.4-32 32v16c0 17.6 14.4 32 32 32zM304 776v-16c0-17.6-14.4-32-32-32H160c-17.6 0-32 14.4-32 32v16c0 17.6 14.4 32 32 32h112c17.6 0 32-14.4 32-32z" fill="#3FA7F7" /><path d="M760 216H528c-17.6 0-32 14.4-32 32s14.4 32 32 32h232c17.6 0 32-14.4 32-32s-14.4-32-32-32zM760 384H528c-17.6 0-32 14.4-32 32s14.4 32 32 32h232c17.6 0 32-14.4 32-32s-14.4-32-32-32zM760 576H528c-17.6 0-32 14.4-32 32s14.4 32 32 32h232c17.6 0 32-14.4 32-32s-14.4-32-32-32zM760 736H528c-17.6 0-32 14.4-32 32s14.4 32 32 32h232c17.6 0 32-14.4 32-32s-14.4-32-32-32z" fill="#F4D576" /></svg>